HIERARCHY
ROOT Hips
{
	OFFSET 56.486801 -10.010716 96.921799
	CHANNELS 6 Xposition Yposition Zposition Xrotation Yrotation Zrotation
	JOINT spine
	{
		OFFSET 0.000000 -0.458068 7.965683
		CHANNELS 3 Xrotation Yrotation Zrotation
		JOINT spine1
		{
			OFFSET 0.000000 -0.000002 10.243103
			CHANNELS 3 Xrotation Yrotation Zrotation
			JOINT spine2
			{
				OFFSET 0.000000 -0.000001 9.814751
				CHANNELS 3 Xrotation Yrotation Zrotation
				JOINT Neck
				{
					OFFSET 0.000000 -1.201385 25.198601
					CHANNELS 3 Xrotation Yrotation Zrotation
					JOINT Head
					{
						OFFSET 0.000000 -0.000001 7.613144
						CHANNELS 3 Xrotation Yrotation Zrotation
						End Site
						{
							OFFSET 0.000000 6.077327 18.428101
						}
					}
				}
				JOINT RightShoulder
				{
					OFFSET -4.132698 0.575449 10.599205
					CHANNELS 3 Xrotation Yrotation Zrotation
					JOINT RightArm
					{
						OFFSET 0.000000 -0.000003 13.901794
						CHANNELS 3 Xrotation Yrotation Zrotation
						JOINT RightArmRoll
						{
							OFFSET 0.000000 -0.000001 7.017883
							CHANNELS 3 Xrotation Yrotation Zrotation
							JOINT RightForeArm
							{
								OFFSET 0.000000 -0.000003 20.440598
								CHANNELS 3 Xrotation Yrotation Zrotation
								JOINT RightForeArmRoll
								{
									OFFSET 0.000000 -0.000002 7.875153
									CHANNELS 3 Xrotation Yrotation Zrotation
									JOINT RightHand
									{
										OFFSET 0.000000 -0.000002 15.803696
										CHANNELS 3 Xrotation Yrotation Zrotation
										End Site
										{
											OFFSET 0.000000 0.000000 0.100006
										}
									}
								}
							}
						}
					}
				}
				JOINT LeftShoulder
				{
					OFFSET 4.132698 0.575449 10.599205
					CHANNELS 3 Xrotation Yrotation Zrotation
					JOINT LeftArm
					{
						OFFSET 0.000000 -0.000003 13.901794
						CHANNELS 3 Xrotation Yrotation Zrotation
						JOINT LeftArmRoll
						{
							OFFSET 0.000000 -0.000001 7.017883
							CHANNELS 3 Xrotation Yrotation Zrotation
							JOINT LeftForeArm
							{
								OFFSET 0.000000 -0.000003 20.440598
								CHANNELS 3 Xrotation Yrotation Zrotation
								JOINT LeftForeArmRoll
								{
									OFFSET 0.000000 -0.000002 7.875153
									CHANNELS 3 Xrotation Yrotation Zrotation
									JOINT LeftHand
									{
										OFFSET 0.000000 -0.000002 15.803696
										CHANNELS 3 Xrotation Yrotation Zrotation
										End Site
										{
											OFFSET 0.000000 0.000000 0.100006
										}
									}
								}
							}
						}
					}
				}
			}
		}
	}
	JOINT RightUpLeg
	{
		OFFSET -7.060478 1.086101 -1.294701
		CHANNELS 3 Xrotation Yrotation Zrotation
		JOINT RightUpLegRoll
		{
			OFFSET 0.000000 -0.000004 18.530800
			CHANNELS 3 Xrotation Yrotation Zrotation
			JOINT RightLeg
			{
				OFFSET 0.000000 0.000004 -22.947601
				CHANNELS 3 Xrotation Yrotation Zrotation
				JOINT RightLegRoll
				{
					OFFSET 0.000000 -0.000004 23.022598
					CHANNELS 3 Xrotation Yrotation Zrotation
					JOINT RightFoot
					{
						OFFSET 0.000000 -0.000003 19.162506
						CHANNELS 3 Xrotation Yrotation Zrotation
						JOINT RightToeBase
						{
							OFFSET 0.000000 -0.000003 16.018799
							CHANNELS 3 Xrotation Yrotation Zrotation
							End Site
							{
								OFFSET 0.006790 0.894205 7.757828
							}
						}
					}
				}
			}
		}
	}
	JOINT LeftUpLeg
	{
		OFFSET 7.060478 1.086101 -1.294701
		CHANNELS 3 Xrotation Yrotation Zrotation
		JOINT LeftUpLegRoll
		{
			OFFSET 0.000000 -0.000004 18.530899
			CHANNELS 3 Xrotation Yrotation Zrotation
			JOINT LeftLeg
			{
				OFFSET 0.000000 -0.000003 22.947502
				CHANNELS 3 Xrotation Yrotation Zrotation
				JOINT LeftLegRoll
				{
					OFFSET 0.000000 -0.000004 23.235504
					CHANNELS 3 Xrotation Yrotation Zrotation
					JOINT LeftFoot
					{
						OFFSET 0.000000 -0.000004 18.949600
						CHANNELS 3 Xrotation Yrotation Zrotation
						JOINT LeftToeBase
						{
							OFFSET 0.000000 -0.000002 16.018799
							CHANNELS 3 Xrotation Yrotation Zrotation
							End Site
							{
								OFFSET -0.030430 0.894205 7.757812
							}
						}
					}
				}
			}
		}
	}
}
MOTION
Frames: 8
Frame Time: 0.041667
55.620796 -11.131016 97.020508 -5.726631 -0.524770 4.435856 -0.895467 -0.106495 -0.161603 2.211593 -0.202013 -0.327253 3.856665 -0.205921 -0.324808 20.414285 19.775430 -5.281681 4.201894 -15.513610 -2.717799 -10.583487 -16.639838 -9.240461 -154.743004 -167.588745 -99.736191 0.000002 0.000002 0.000001 93.635289 -0.589416 5.050706 0.000005 0.000007 -3.009710 -5.000212 -7.999782 0.000048 -6.752338 31.136811 5.251480 -140.487115 169.857352 86.919007 -0.000001 -0.000039 0.000001 83.461080 -3.558081 -3.207024 0.000001 0.000001 3.000014 -5.000217 7.999109 -0.000100 5.574105 -174.161546 5.633665 -179.999991 0.000005 -1.235002 175.238120 -2.073827 -0.433721 -0.000000 -0.000001 0.062118 69.266765 6.922844 2.026104 25.456952 -7.355623 0.000015 8.292577 174.306755 -3.815088 -0.000020 -0.000004 -1.295200 -4.382016 2.861804 0.169939 -0.000003 0.000000 -0.048755 68.740021 -6.936087 -2.045749 25.456953 7.355612 0.000001 
55.615597 -11.086819 97.019600 -5.711143 -0.525578 4.427367 -0.893655 -0.103065 -0.156975 2.215234 -0.195016 -0.318274 3.860314 -0.198816 -0.315914 20.351047 19.548954 -5.217778 4.163624 -15.314382 -2.702744 -10.579504 -16.607801 -9.230537 -154.702856 -167.608526 -99.695094 -0.000002 -0.000000 -0.000000 93.881251 -0.613120 5.093776 0.000005 0.000007 -3.009710 -5.000212 -7.999780 0.000049 -6.690964 31.055378 5.155863 -140.434550 169.763300 86.883093 -0.000004 -0.000041 0.000002 83.611870 -3.532848 -3.240512 -0.000004 0.000001 3.000008 -5.000214 7.999110 -0.000102 5.543114 -174.160248 5.623168 -179.999991 0.000005 -1.234005 175.232342 -2.066825 -0.433348 0.000000 -0.000001 0.062242 69.268179 6.922632 2.026176 25.456957 -7.355623 0.000015 8.260518 174.309255 -3.811969 -0.000019 -0.000004 -1.294760 -4.395053 2.867317 0.170173 -0.000003 0.000000 -0.048743 68.735472 -6.936017 -2.046221 25.456957 7.355613 0.000001 
55.619396 -11.079318 97.019890 -5.695762 -0.526362 4.417992 -0.891714 -0.099707 -0.152721 2.219132 -0.188245 -0.309957 3.864213 -0.191945 -0.307679 20.281215 19.329348 -5.153491 4.133157 -15.122281 -2.685837 -10.576256 -16.575735 -9.221867 -154.658801 -167.617364 -99.640787 0.000001 -0.000003 -0.000001 94.109188 -0.635797 5.137800 0.000004 0.000007 -3.009700 -5.000209 -7.999779 0.000048 -6.633666 30.984562 5.067309 -140.385263 169.671721 86.838861 -0.000002 -0.000042 0.000001 83.757845 -3.509324 -3.273814 -0.000002 0.000000 3.000012 -5.000213 7.999110 -0.000098 5.512104 -174.157953 5.613057 -179.999991 0.000005 -1.234005 175.226072 -2.059837 -0.433990 -0.000000 -0.000001 0.062362 69.270112 6.922372 2.026307 25.456952 -7.355625 0.000015 8.229545 174.311796 -3.808609 -0.000020 -0.000004 -1.294309 -4.407248 2.872475 0.170406 -0.000003 0.000000 -0.048730 68.731114 -6.935965 -2.046785 25.456950 7.355614 0.000000 
55.629295 -11.089721 97.023903 -5.680691 -0.527161 4.407612 -0.889583 -0.096464 -0.148924 2.223411 -0.181795 -0.302440 3.868490 -0.185406 -0.300240 20.203276 19.118164 -5.088707 4.111858 -14.938575 -2.666876 -10.574028 -16.543119 -9.214621 -154.610075 -167.615902 -99.571153 -0.000000 -0.000001 -0.000000 94.318827 -0.657526 5.183783 0.000005 0.000004 -3.009700 -5.000212 -7.999781 0.000049 -6.580749 30.925563 4.986453 -140.339460 169.583816 86.784486 -0.000003 -0.000041 0.000003 83.900432 -3.487657 -3.307274 -0.000001 0.000001 3.000009 -5.000211 7.999114 -0.000098 5.481305 -174.155658 5.603389 -179.999991 0.000005 -1.232994 175.219214 -2.052833 -0.433653 0.000001 -0.000001 0.062478 69.272673 6.922145 2.026405 25.456952 -7.355624 0.000015 8.200070 174.314337 -3.804954 -0.000020 -0.000004 -1.293840 -4.418420 2.877188 0.170642 -0.000002 0.000000 -0.048716 68.727201 -6.935900 -2.047218 25.456953 7.355611 0.000001 
55.628197 -11.065018 97.025101 -5.666173 -0.528017 4.396162 -0.887187 -0.093380 -0.145666 2.228211 -0.175765 -0.295868 3.873290 -0.179298 -0.293740 20.115937 18.917040 -5.023434 4.101000 -14.764559 -2.645671 -10.572697 -16.509672 -9.208892 -154.555802 -167.604605 -99.483939 -0.000001 0.000000 0.000001 94.509655 -0.678473 5.231716 0.000005 0.000005 -3.009690 -5.000212 -7.999780 0.000048 -6.532565 30.879852 4.913972 -140.297317 169.500720 86.718069 -0.000003 -0.000038 0.000001 84.041516 -3.467821 -3.341336 -0.000003 0.000000 3.000010 -5.000213 7.999110 -0.000096 5.450931 -174.153377 5.594306 -179.999991 0.000005 -1.232994 175.211646 -2.046833 -0.434420 -0.000000 -0.000002 0.062590 69.275774 6.921906 2.026567 25.456952 -7.355624 0.000015 8.172530 174.316919 -3.800949 -0.000020 -0.000004 -1.293350 -4.428390 2.881367 0.170876 -0.000002 0.000000 -0.048703 68.723601 -6.935855 -2.047734 25.456953 7.355612 0.000001 
55.629097 -11.023818 97.023201 -5.652411 -0.528969 4.383546 -0.884474 -0.090498 -0.143024 2.233649 -0.170253 -0.290381 3.878739 -0.173720 -0.288319 20.017553 18.727551 -4.957559 4.101935 -14.601609 -2.622041 -10.572661 -16.474973 -9.204897 -154.495396 -167.584101 -99.376930 -0.000001 -0.000001 -0.000000 94.681175 -0.698636 5.282558 0.000005 0.000004 -3.009680 -5.000210 -7.999781 0.000047 -6.489429 30.848823 4.850541 -140.259178 169.423717 86.637856 -0.000002 -0.000038 0.000001 84.182806 -3.449833 -3.376634 -0.000003 0.000000 3.000006 -5.000213 7.999112 -0.000100 5.421223 -174.150098 5.586043 -179.999991 0.000005 -1.231997 175.203368 -2.040833 -0.434215 -0.000000 -0.000002 0.062697 69.279620 6.921701 2.026590 25.456948 -7.355623 0.000015 8.147308 174.320525 -3.796397 -0.000020 -0.000004 -1.292840 -4.436975 2.884902 0.171112 -0.000002 0.000000 -0.048689 68.720521 -6.935808 -2.048118 25.456955 7.355613 0.000002 
55.629002 -11.016821 97.024399 -5.639502 -0.530238 4.369902 -0.881398 -0.087698 -0.140907 2.239819 -0.165066 -0.285756 3.884898 -0.168478 -0.283757 19.911219 18.549013 -4.892247 4.111304 -14.450787 -2.597019 -10.573791 -16.436768 -9.202409 -154.429293 -167.550797 -99.251057 -0.000002 0.000001 0.000001 94.831385 -0.718579 5.334310 0.000006 0.000005 -3.009681 -5.000215 -7.999780 0.000049 -6.450286 30.833328 4.794664 -140.226980 169.353816 86.547622 -0.000001 -0.000041 0.000001 84.321308 -3.433713 -3.411655 -0.000002 0.000000 3.000008 -5.000215 7.999112 -0.000100 5.391911 -174.146847 5.578525 -179.999991 0.000005 -1.231997 175.193505 -2.035822 -0.434147 -0.000000 -0.000001 0.062819 69.284531 6.921514 2.026748 25.456948 -7.355624 0.000016 8.124378 174.325156 -3.791165 -0.000020 -0.000004 -1.292310 -4.444495 2.887695 0.171348 -0.000003 0.000000 -0.048676 68.717871 -6.935748 -2.048375 25.456953 7.355613 -0.000001 
55.637600 -11.013819 97.023399 -5.627286 -0.531936 4.355458 -0.878007 -0.084846 -0.139150 2.246618 -0.159949 -0.281671 3.891696 -0.163313 -0.279733 19.800759 18.379194 -4.828451 4.125094 -14.311458 -2.571662 -10.576026 -16.393873 -9.201160 -154.358368 -167.501374 -99.109337 -0.000002 -0.000000 -0.000000 94.959348 -0.738532 5.386986 0.000005 0.000004 -3.009670 -5.000212 -7.999779 0.000049 -6.413924 30.832239 4.744377 -140.202405 169.290432 86.452525 -0.000002 -0.000038 0.000002 84.453001 -3.419315 -3.444695 -0.000001 0.000000 3.000008 -5.000209 7.999112 -0.000099 5.362545 -174.142571 5.571691 -179.999991 0.000005 -1.231000 175.181703 -2.030804 -0.435144 0.000000 -0.000001 0.062971 69.290903 6.921289 2.026911 25.456952 -7.355624 0.000015 8.103213 174.329801 -3.785331 -0.000020 -0.000004 -1.291751 -4.451402 2.889791 0.171583 -0.000003 0.000000 -0.048661 68.715330 -6.935696 -2.048823 25.456957 7.355613 0.000001 
